<svg width="468" height="517" viewBox="0 0 468 517" fill="none" xmlns="http://www.w3.org/2000/svg">
<path d="M68.119 479.7H384.999C384.999 479.7 396.094 297.505 355.723 270.844C315.358 244.189 126.577 249.756 84.7363 272.523C42.8957 295.297 68.119 479.7 68.119 479.7Z" fill="#FB4C47"/>
<path d="M120.878 232.455C120.415 232.455 119.953 232.306 119.573 231.987C118.697 231.277 98.3798 214.175 109.502 179.707C113.384 167.654 117.189 159.12 120.547 151.582C126.598 138.015 130.97 128.214 131.796 107.264C131.846 106.124 132.732 105.27 133.944 105.276C135.083 105.325 135.97 106.283 135.926 107.423C135.061 129.172 130.326 139.804 124.324 153.261C121.004 160.705 117.249 169.135 113.422 180.973C103.165 212.787 121.99 228.639 122.183 228.794C123.064 229.515 123.201 230.814 122.474 231.695C122.067 232.196 121.472 232.455 120.878 232.455Z" fill="#000C3E"/>
<path d="M233.359 26.888C232.825 41.1928 220.794 52.3481 206.489 51.814C192.19 51.2799 181.029 39.2491 181.563 24.9499C182.103 10.6451 194.128 -0.515719 208.433 0.0183696C222.732 0.557966 233.893 12.5832 233.359 26.888Z" fill="#000C3E"/>
<path d="M118.556 222.389C118.556 222.389 126.16 238.07 157.203 243.582C188.252 249.099 212.616 237.866 236.584 246.56C260.552 255.249 295.18 243.923 302.046 233.852C308.907 223.782 307.469 112.256 288.573 93.5521C269.67 74.8535 170.649 59.2438 149.192 81.1249C127.735 103.012 104.945 209.829 118.556 222.389Z" fill="#000C3E"/>
<path d="M297.807 134.4C296.04 181.532 256.402 218.312 209.27 216.545C162.138 214.778 125.357 175.139 127.125 128.002C128.892 80.8699 168.53 44.0948 215.662 45.8623C262.794 47.6242 299.575 87.2679 297.807 134.4Z" fill="#000C3E"/>
<path d="M247.497 205.807C247.497 205.807 253.041 272.315 247.497 279.704C241.952 287.093 206.851 281.554 197.617 279.704C188.378 277.859 184.683 205.807 190.222 205.807C195.767 205.807 246.434 190.979 247.497 205.807Z" fill="#FFCEB0"/>
<path d="M142.738 128C142.738 128 146.251 231.663 216.332 236.139C286.419 240.61 286.348 94.5561 260.987 80.6642C235.62 66.7724 129.782 69.3768 142.738 128Z" fill="#FFCEB0"/>
<path d="M214.697 150.19C214.697 150.19 228.082 182.098 224.636 184.212C221.194 186.326 211.113 185.946 208.398 183.601C205.684 181.255 209.224 146.622 214.697 150.19Z" fill="#EE9B68"/>
<path d="M193.709 171.497C193.533 175.131 190.444 177.928 186.81 177.752C183.182 177.576 180.379 174.487 180.555 170.853C180.732 167.224 183.821 164.421 187.455 164.598C191.083 164.774 193.886 167.863 193.709 171.497Z" fill="#41294A"/>
<path d="M250.244 168.396C250.068 172.03 246.979 174.827 243.345 174.651C239.716 174.475 236.914 171.386 237.09 167.752C237.266 164.123 240.355 161.321 243.989 161.497C247.618 161.673 250.42 164.762 250.244 168.396Z" fill="#41294A"/>
<path d="M197.922 72.7163C197.922 72.7163 172.792 84.8682 168.013 107.68C163.228 130.497 165.706 188.911 139.078 186.229C139.078 186.229 87.5251 70.624 197.922 72.7163Z" fill="#000C3E"/>
<path d="M211.167 73.2132C208.887 74.8485 237.078 74.777 253.195 94.318C269.316 113.854 273.143 162.687 275.632 163.59C278.126 164.498 288.081 103.084 270.407 84.6328C252.738 66.182 224.139 63.9245 211.167 73.2132Z" fill="#000C3E"/>
<path d="M191.198 226.685C191.198 226.685 218.464 242.191 246.776 227.699C246.776 227.699 248.978 245.103 246.776 249.117C244.573 253.131 199.732 256 190.906 236.216C190.906 236.216 188.648 225.827 191.198 226.685Z" fill="#EE9B68"/>
<path d="M269.59 167.755C269.59 167.755 276.302 141.805 288.002 151.039C299.708 160.278 289.12 187.396 277.552 189.857C265.984 192.318 263.198 181.135 269.59 167.755Z" fill="#FFCEB0"/>
<path d="M159.053 163.613C159.053 163.613 154.301 137.233 141.94 145.569C129.579 153.9 138.108 181.739 149.461 185.059C160.815 188.373 164.421 177.433 159.053 163.613Z" fill="#FFCEB0"/>
<path d="M241.035 134.317C241.035 134.317 253.578 128.073 260.989 137.648C267.508 146.061 252.345 139.008 246.673 139.944C241.008 140.88 233.569 140.236 241.035 134.317Z" fill="#41294A"/>
<path d="M191.743 135.525C191.743 135.525 179.179 129.325 171.8 138.927C165.314 147.363 180.45 140.254 186.122 141.168C191.793 142.088 199.232 141.416 191.743 135.525Z" fill="#41294A"/>
<path d="M186.578 146.103C175.753 146.103 166.955 154.588 166.542 165.424C166.344 170.776 168.243 175.891 171.888 179.823C175.533 183.749 180.489 186.023 185.846 186.221L186.617 186.237C197.447 186.237 206.246 177.752 206.654 166.922C206.857 161.57 204.958 156.449 201.313 152.524C197.668 148.592 192.707 146.318 187.349 146.12L186.578 146.103ZM186.617 188.99L185.741 188.974C179.652 188.748 174.014 186.16 169.867 181.695C165.721 177.224 163.563 171.409 163.789 165.314C164.257 153.003 174.267 143.35 186.578 143.35L187.454 143.367C193.544 143.593 199.182 146.181 203.328 150.646C207.474 155.122 209.632 160.931 209.407 167.032C208.944 179.344 198.934 188.99 186.617 188.99Z" fill="#FFFCF6"/>
<path d="M243.522 142.906C232.698 142.906 223.899 151.391 223.486 162.227C223.073 173.283 231.734 182.616 242.79 183.023L243.561 183.04C254.386 183.04 263.185 174.555 263.598 163.719C263.796 158.367 261.896 153.252 258.251 149.321C254.606 145.395 249.651 143.121 244.293 142.923L243.522 142.906ZM243.561 185.793L242.686 185.776C230.11 185.308 220.265 174.693 220.733 162.117C221.201 149.805 231.211 140.153 243.522 140.153L244.398 140.169C250.488 140.395 256.126 142.983 260.272 147.448C264.418 151.919 266.576 157.734 266.351 163.829C265.883 176.141 255.873 185.793 243.561 185.793Z" fill="#FFFCF6"/>
<path d="M165.84 162.172C165.675 162.172 165.499 162.139 165.334 162.073L156.992 158.78C156.282 158.499 155.935 157.701 156.216 156.996C156.496 156.286 157.284 155.945 158 156.22L166.347 159.518C167.057 159.793 167.398 160.597 167.118 161.302C166.903 161.842 166.391 162.172 165.84 162.172Z" fill="#FFFCF6"/>
<path d="M264.183 158.53C263.588 158.53 263.032 158.139 262.861 157.528C262.652 156.801 263.076 156.042 263.808 155.832L275.404 152.512C276.147 152.308 276.902 152.727 277.105 153.459C277.315 154.191 276.891 154.951 276.158 155.161L264.557 158.475C264.436 158.514 264.304 158.53 264.183 158.53Z" fill="#FFFCF6"/>
<path d="M206.423 67.275C206.423 67.275 209.584 123.464 225.072 128.563C240.561 133.667 278.641 132.269 280.48 126.124C282.319 119.974 250.951 70.518 228.442 62.5893C188.969 48.681 154.897 112.86 159.401 128.321C163.905 143.787 197.823 130.253 205.058 128.266C212.298 126.278 204.975 78.3807 206.423 67.275Z" fill="#000C3E"/>
<path d="M208.038 167.145C207.322 167.145 206.722 166.595 206.667 165.879C206.607 165.119 207.174 164.458 207.928 164.398L222.057 163.297C222.883 163.164 223.483 163.809 223.532 164.557C223.593 165.317 223.031 165.978 222.271 166.039L208.148 167.14C208.11 167.145 208.071 167.145 208.038 167.145Z" fill="#FFFCF6"/>
<path d="M191.274 51.8511C190.95 51.8511 190.63 51.7741 190.327 51.6199C182.751 47.7106 178.231 42.2596 176.898 35.421C173.974 20.4115 187.607 4.32273 188.191 3.64549C188.94 2.77002 190.234 2.67091 191.104 3.42524C191.968 4.16856 192.067 5.46799 191.324 6.33245C191.192 6.48662 178.407 21.6008 180.956 34.6392C182.035 40.1728 185.829 44.6492 192.221 47.9528C193.235 48.4759 193.631 49.7203 193.108 50.7334C192.745 51.4437 192.023 51.8511 191.274 51.8511Z" fill="#000C3E"/>
<path d="M221.159 56.4641C220.575 56.4641 219.986 56.2108 219.578 55.7207C218.846 54.8508 218.962 53.5513 219.837 52.819C219.986 52.6869 235.089 39.8743 234.715 26.5936C234.56 20.9609 231.554 15.9228 225.789 11.6171C224.875 10.9343 224.688 9.64041 225.371 8.72641C226.059 7.80689 227.342 7.63069 228.261 8.30794C235.089 13.4121 238.657 19.5293 238.844 26.4945C239.263 41.7794 223.168 55.4124 222.48 55.985C222.095 56.3099 221.627 56.4641 221.159 56.4641Z" fill="#41294A"/>
<path d="M295.168 230.712C294.551 230.712 293.94 230.437 293.532 229.914C292.833 229.011 292.993 227.717 293.896 227.018C294.606 226.462 311.323 213.126 306.951 190.661C305.238 181.863 302.1 172.122 298.769 161.809C292.971 143.843 286.975 125.26 286.87 107.321C286.865 106.182 287.784 105.251 288.924 105.246H288.935C290.069 105.246 290.994 106.165 291 107.299C291.099 124.599 296.996 142.874 302.695 160.543C306.064 170.977 309.247 180.827 311.003 189.874C315.871 214.882 297.222 229.666 296.429 230.283C296.049 230.575 295.608 230.712 295.168 230.712Z" fill="#000C3E"/>
<path d="M302.051 136.534C301.969 136.534 301.886 136.528 301.798 136.517C300.669 136.379 299.866 135.35 300.003 134.216C302.789 111.531 298.467 92.9696 287.146 79.0502C268.91 56.624 238.352 53.8324 238.043 53.8159C236.909 53.7168 236.067 52.7202 236.155 51.5805C236.254 50.4517 237.272 49.5983 238.385 49.6974C239.706 49.802 270.959 52.6266 290.323 76.4128C302.393 91.2352 307.029 110.859 304.1 134.722C303.973 135.763 303.081 136.534 302.051 136.534Z" fill="#000C3E"/>
<path d="M218.245 216.102C215.921 216.102 213.454 216.025 211.604 215.959C210.465 215.909 209.578 214.951 209.622 213.812C209.661 212.672 210.536 211.752 211.764 211.829C216.516 212.017 222.275 212.039 223.321 211.736C224.395 211.433 225.557 212.011 225.904 213.074C226.245 214.131 225.738 215.254 224.698 215.629C223.696 215.987 221.08 216.102 218.245 216.102Z" fill="#EE9B68"/>
<path d="M151.921 178.609C151.722 178.609 151.519 178.581 151.32 178.515C150.225 178.185 149.613 177.034 149.949 175.944C153.704 163.605 144.713 155.412 144.625 155.329C143.777 154.575 143.7 153.265 144.46 152.411C145.214 151.558 146.519 151.481 147.378 152.246C147.829 152.648 158.418 162.311 153.892 177.144C153.627 178.036 152.807 178.609 151.921 178.609Z" fill="#EE9B68"/>
<path d="M274.354 184.659C274.293 184.659 274.238 184.659 274.172 184.654C273.038 184.549 272.195 183.553 272.294 182.413C273.654 166.935 281.335 158.775 281.66 158.434C282.453 157.619 283.747 157.597 284.573 158.379C285.399 159.161 285.426 160.466 284.644 161.292C284.573 161.369 277.635 168.829 276.413 182.776C276.314 183.85 275.411 184.659 274.354 184.659Z" fill="#EE9B68"/>
<path d="M154.043 276.78C154.043 276.78 200.927 332.832 237.086 317.834C273.238 302.835 307.112 262.178 288.936 256.782C270.761 251.392 125.621 254.228 154.043 276.78Z" fill="#FFCEB0"/>
<path d="M277.872 350.85C277.872 350.85 250.551 326.315 221.985 340.185C193.42 354.049 202.114 382.852 176.032 377.516C149.949 372.181 102.691 380.242 113.934 408.449C125.177 436.657 53.2571 458.725 80.5782 494.994C107.899 531.257 181.642 503.38 204.3 510.851C226.952 518.318 280.355 521.517 286.566 500.181C292.777 478.85 332.52 475.651 326.309 447.917C320.098 420.183 313.887 381.784 277.872 350.85Z" fill="white"/>
<path d="M187.621 415.381C187.621 415.381 215.515 448.875 215.443 481.113C215.399 501.639 200.291 467.045 195.104 460.041C189.923 453.043 206.276 483.194 200.858 492.846C198.209 497.57 181.322 462.695 181.322 462.695C181.322 462.695 188.491 495.462 183.921 498.644C179.357 501.832 167.574 470.321 167.574 470.321C167.574 470.321 168.124 495.919 162.695 496.238C157.272 496.557 159.221 470.249 137.444 458.857C115.662 447.465 16.4486 526.312 14.092 461.693C11.7354 397.074 40.846 374.686 108.279 386.419C161.495 395.681 169.892 401.55 187.621 415.381Z" fill="#FFC6A6"/>
<path d="M249.658 415.381C249.658 415.381 221.764 448.875 221.835 481.113C221.879 501.639 236.988 467.045 242.175 460.041C247.356 453.043 231.003 483.194 236.421 492.846C239.069 497.57 255.956 462.695 255.956 462.695C255.956 462.695 248.788 495.462 253.358 498.644C257.922 501.832 269.705 470.321 269.705 470.321C269.705 470.321 269.155 495.919 274.584 496.238C280.007 496.557 278.058 470.249 299.834 458.857C321.616 447.465 433.417 534.059 435.774 469.44C438.125 404.821 396.433 374.686 329 386.419C275.784 395.681 267.387 401.55 249.658 415.381Z" fill="#FFC6A6"/>
<path d="M280.706 471.703C280.706 471.703 281.301 415.013 312.284 415.381C343.266 415.756 357.995 443.446 328.835 459.777C299.675 476.113 279.886 482.77 280.706 471.703Z" fill="white"/>
<path d="M304.084 436.401C304.084 436.401 309.034 447.925 320.723 449.082C332.407 450.238 358.974 449.082 361.287 465.831C363.594 482.581 349.707 505.679 332.683 503.372C315.663 501.059 298.187 497.585 283.833 507.204C269.478 516.823 283.844 429.497 304.084 436.401Z" fill="white"/>
<path d="M333.564 346.58C333.564 354.234 327.358 360.439 319.705 360.439C312.046 360.439 305.841 354.234 305.841 346.58C305.841 338.927 312.046 332.722 319.705 332.722C327.358 332.722 333.564 338.927 333.564 346.58Z" fill="white"/>
<path d="M172.859 346.58C172.859 354.234 166.653 360.439 159 360.439C151.341 360.439 145.136 354.234 145.136 346.58C145.136 338.927 151.341 332.722 159 332.722C166.653 332.722 172.859 338.927 172.859 346.58Z" fill="white"/>
<path d="M216.959 202.745C206.377 202.745 197.066 195.428 196.636 195.075C195.739 194.371 195.596 193.071 196.306 192.179C197.011 191.293 198.31 191.138 199.202 191.849C199.312 191.931 209.779 200.119 219.966 198.362C224.877 197.498 229.012 194.387 232.261 189.112C232.861 188.138 234.144 187.829 235.102 188.435C236.076 189.035 236.374 190.307 235.779 191.276C231.881 197.608 226.793 201.363 220.659 202.431C219.415 202.646 218.182 202.745 216.959 202.745Z" fill="#EE9B68"/>
<path d="M133.278 261.038C133.278 261.038 94.1241 316.193 92.9822 348.606C91.8403 381.019 56.7977 394.689 66.7295 441.389C70.6454 459.778 81.6471 485.839 71.0981 496.121C43.6159 522.908 17.086 503.496 12.5072 496.121C-20.597 442.766 19.4828 316.612 54.3583 288.54C80.6649 261.038 133.278 261.038 133.278 261.038Z" fill="#D9423D"/>
<path d="M315.031 258.648C315.031 258.648 358.567 314.556 359.767 346.006C360.967 377.456 397.791 390.72 387.355 436.033C383.24 453.876 364.093 480.011 384.042 489.14C407.655 499.943 445.34 492.996 450.151 485.84C497.981 430.836 434.187 319.366 397.538 292.129C365.253 265.822 315.031 258.648 315.031 258.648Z" fill="#D9423D"/>
</svg>
